# xmcd
#
# Track frame offsets:
# 150
# 21657
# 41575
# 61793
# 77607
# 94439
# 114279
# 136577
# 157990
# 171171
# 186965
# 201149
# 218857
# 238564
#
# Disc length: 3409 seconds
#
#
# Revision: 0
# Processed by: cddbd v1.5.1PL2 Copyright (c) Steve Scherf et al.
# Submitted via: FreeRIP 2.91 
#
DISCID=b80d4f0e
DTITLE=BD Mylo and the Go Daddys - I Can't Lose
DYEAR=2004
DGENRE=Blues
TTITLE0=City Blues
TTITLE1=Ain't That Cold
TTITLE2=I Can't lose
TTITLE3=Big Steps
TTITLE4=Fly Me to the Moon
TTITLE5=The Fire or the Flame
TTITLE6=Ain't Gonna Lose It
TTITLE7=How To Be Me
TTITLE8=Little Girl
TTITLE9=Somber Samba
TTITLE10=Trouble In Mind
TTITLE11=Blues for D
TTITLE12=Hollywood Bound
TTITLE13=How Do U Feel When You're Down
EXTD=
EXTT0=
EXTT1=
EXTT2=
EXTT3=
EXTT4=
EXTT5=
EXTT6=
EXTT7=
EXTT8=
EXTT9=
EXTT10=
EXTT11=
EXTT12=
EXTT13=
PLAYORDER=
